<svg xmlns="http://www.w3.org/2000/svg" viewBox="0 0 900 720">
<defs><linearGradient id="g" x1="0" x2="1" y1="0" y2="1"><stop stop-color="#e5f4ef"/><stop offset="1" stop-color="#cde9e1"/></linearGradient></defs>
<rect width="900" height="720" rx="54" fill="url(#g)"/>
<g transform="translate(70 70)">
<rect x="0" y="0" width="340" height="230" rx="28" fill="#fff" opacity=".96"/>
<text x="28" y="48" font-family="Arial" font-size="18" font-weight="700" fill="#0a6c63">AUTOMOBILE</text>
<path d="M50 150h230l-25-54c-7-15-22-24-38-24H115c-16 0-31 9-38 24Z" fill="#0a6c63"/>
<circle cx="108" cy="157" r="25" fill="#102321"/><circle cx="222" cy="157" r="25" fill="#102321"/>
</g>
<g transform="translate(490 70)">
<rect width="340" height="230" rx="28" fill="#fff" opacity=".96"/>
<text x="28" y="48" font-family="Arial" font-size="18" font-weight="700" fill="#0a6c63">TEXTILE</text>
<rect x="52" y="105" width="236" height="78" rx="24" fill="#d6b995"/>
<rect x="74" y="79" width="88" height="62" rx="20" fill="#e5cfb2"/><rect x="178" y="79" width="88" height="62" rx="20" fill="#e5cfb2"/>
</g>
<g transform="translate(70 390)">
<rect width="340" height="230" rx="28" fill="#fff" opacity=".96"/>
<text x="28" y="48" font-family="Arial" font-size="18" font-weight="700" fill="#0a6c63">VITRES & VITRINES</text>
<rect x="66" y="76" width="208" height="118" rx="7" fill="#b9ddd7" stroke="#0a6c63" stroke-width="8"/>
<path d="M170 78v114M68 136h204" stroke="#0a6c63" stroke-width="6"/>
</g>
<g transform="translate(490 390)">
<rect width="340" height="230" rx="28" fill="#073f3b"/>
<text x="28" y="48" font-family="Arial" font-size="18" font-weight="700" fill="#9ce9db">PROFESSIONNELS</text>
<circle cx="113" cy="124" r="30" fill="#fff"/><circle cx="227" cy="124" r="30" fill="#dff5ef"/>
<rect x="73" y="160" width="80" height="35" rx="17" fill="#fff"/><rect x="187" y="160" width="80" height="35" rx="17" fill="#dff5ef"/>
</g>
</svg>